<svg width="20" height="20" viewBox="0 0 20 20" fill="none" xmlns="http://www.w3.org/2000/svg">
<g id="Shopping bag">
<g id="Group 27248">
<path id="Vector" d="M8.84512 17.5C9.48945 17.5 10.0118 16.9776 10.0118 16.3333C10.0118 15.689 9.48945 15.1666 8.84512 15.1666C8.20079 15.1666 7.67845 15.689 7.67845 16.3333C7.67845 16.9776 8.20079 17.5 8.84512 17.5Z" stroke="#454545" stroke-linecap="round" stroke-linejoin="round"/>
<path id="Vector_2" d="M14.4553 17.5C15.0996 17.5 15.6219 16.9776 15.6219 16.3333C15.6219 15.689 15.0996 15.1666 14.4553 15.1666C13.8109 15.1666 13.2886 15.689 13.2886 16.3333C13.2886 16.9776 13.8109 17.5 14.4553 17.5Z" stroke="#454545" stroke-linecap="round" stroke-linejoin="round"/>
<path id="Vector_3" d="M2.64999 3H5.31666L7.10333 11.9267C7.16429 12.2336 7.33126 12.5093 7.57502 12.7055C7.81878 12.9018 8.12379 13.006 8.43666 13H14.9167C15.2295 13.006 15.5345 12.9018 15.7783 12.7055C16.0221 12.5093 16.189 12.2336 16.25 11.9267L17.3167 6.33333H5.98333" stroke="#454545" stroke-linecap="round" stroke-linejoin="round"/>
</g>
</g>
</svg>
